<svg width="171" height="175" viewBox="0 0 171 175" fill="none" xmlns="http://www.w3.org/2000/svg">
<path d="M19.6991 112.404V45.0355C19.6991 29.1535 19.6991 21.2209 24.468 16.2819C27.1347 13.5315 30.693 12.3156 36.0018 11.7789H76.7379M15.601 120.915L19.8546 112.412H149.695L154.177 120.924C165.94 143.246 168.869 154.407 164.402 162.759C159.928 171.11 148.075 171.11 124.378 171.11H45.4005C21.7032 171.11 9.85048 171.11 5.38423 162.759C0.917982 154.407 3.8464 143.246 15.6092 120.924" stroke="#CEFF1B" stroke-width="6.79908" stroke-linecap="round" stroke-linejoin="round"/>
<path d="M113.327 3.40792V20.0027M84.9103 32.7569H101.63M150.293 32.7569H167.012M150.293 57.6952H167.012M84.9103 57.6952H101.63M113.327 70.6506V87.2538M137.982 70.6506V87.2538M137.892 3.39954V20.0027M109.769 70.223H142.129C144.294 70.2163 146.369 69.3299 147.897 67.7581C149.426 66.1862 150.284 64.0572 150.284 61.8376V28.3881C150.284 23.7593 146.636 20.0027 142.129 20.0027H109.769C107.605 20.0115 105.533 20.8989 104.006 22.4705C102.479 24.0422 101.622 26.1699 101.622 28.3881V61.8376C101.622 66.4663 105.27 70.223 109.769 70.223Z" stroke="#CEFF1B" stroke-width="6.79908" stroke-linecap="round"/>
</svg>
