<svg width="171" height="175" viewBox="0 0 171 175" fill="none" xmlns="http://www.w3.org/2000/svg">
<path d="M157.912 115.207C157.912 132.574 157.912 141.258 155.149 148.097C153.321 152.619 150.643 156.728 147.267 160.189C143.891 163.65 139.882 166.395 135.471 168.268C128.791 171.11 120.32 171.11 103.378 171.11H76.1111C41.8276 171.11 24.6858 171.11 14.0336 160.19C3.39954 149.28 3.39954 131.708 3.39954 96.5721V40.6686C3.39954 30.7842 7.22986 21.3047 14.0479 14.3154C20.8659 7.32608 30.1132 3.39954 39.7553 3.39954" stroke="#CEFF1B" stroke-width="6.79908" stroke-linecap="round" stroke-linejoin="round"/>
<path d="M67.029 54.6494L70.9736 91.6296C71.1412 93.1457 71.6923 94.5907 72.5723 95.8212C73.4524 97.0518 74.6307 98.0254 75.9907 98.6455C82.2257 101.394 93.905 105.894 103.385 105.894C112.865 105.894 124.544 101.394 130.779 98.6455C132.141 98.0267 133.321 97.0537 134.202 95.823C135.084 94.5923 135.637 93.1467 135.805 91.6296L139.741 54.6494M162.463 45.3321V80.4582M103.385 12.7217L39.7621 40.6735L103.385 68.6253L167.007 40.6735L103.385 12.7217Z" stroke="#CEFF1B" stroke-width="6.79908" stroke-linecap="round" stroke-linejoin="round"/>
</svg>
