<svg width="182" height="167" viewBox="0 0 182 167" fill="none" xmlns="http://www.w3.org/2000/svg">
<path d="M61.5008 163.178H90.5514M90.5514 163.178H119.602M90.5514 163.178V133.219M90.5514 133.219H158.336C163.473 133.219 168.399 131.115 172.031 127.37C175.663 123.624 177.703 118.544 177.703 113.247V23.3718C177.703 18.0749 175.663 12.9948 172.031 9.24929C168.399 5.50375 163.473 3.39954 158.336 3.39954H22.7666C17.6301 3.39954 12.7041 5.50375 9.07202 9.24929C5.43999 12.9948 3.39954 18.0749 3.39954 23.3718V113.247C3.39954 118.544 5.43999 123.624 9.07202 127.37C12.7041 131.115 17.6301 133.219 22.7666 133.219H90.5514Z" stroke="#CEFF1B" stroke-width="6.79908" stroke-linecap="round" stroke-linejoin="round"/>
<path d="M79.0809 32.775C78.7738 32.5671 78.4238 32.4557 78.0668 32.4521C77.7097 32.4486 77.3581 32.553 77.0478 32.7547C76.7375 32.9564 76.4795 33.2484 76.3 33.6008C76.1205 33.9532 76.0259 34.3536 76.0259 34.7612V88.2441C76.0259 88.6517 76.1205 89.0521 76.3 89.4045C76.4795 89.7569 76.7375 90.0488 77.0478 90.2506C77.3581 90.4523 77.7097 90.5567 78.0668 90.5532C78.4238 90.5496 78.7738 90.4382 79.0809 90.2303L118.611 63.4889C118.913 63.2844 119.163 62.9937 119.337 62.6455C119.51 62.2973 119.602 61.9034 119.602 61.5026C119.602 61.1019 119.51 60.708 119.337 60.3598C119.163 60.0115 118.913 59.7209 118.611 59.5164L79.0809 32.775Z" stroke="#CEFF1B" stroke-width="6.79908" stroke-linecap="round" stroke-linejoin="round"/>
</svg>
