<svg width="24" height="24" viewBox="0 0 24 24" fill="none" xmlns="http://www.w3.org/2000/svg">
<path d="M22.9532 11.7785C22.9551 13.2456 22.6674 14.6987 22.1066 16.0545C21.5459 17.4102 20.7231 18.642 19.6854 19.6792C18.6472 20.7176 17.4145 21.5412 16.0578 22.103C14.7012 22.6647 13.2471 22.9536 11.7787 22.953C10.1983 22.9565 8.63535 22.6229 7.19411 21.9745L2.52257 22.6655C2.29062 22.7034 2.05294 22.684 1.83016 22.6092C1.60738 22.5343 1.40624 22.4062 1.24421 22.236C1.08219 22.0657 0.964177 21.8585 0.900428 21.6323C0.836678 21.4061 0.82912 21.1678 0.878408 20.938L1.52713 16.1988C0.910051 14.8073 0.595463 13.3006 0.60418 11.7785C0.602304 10.3114 0.889986 8.85827 1.45074 7.50252C2.01149 6.14676 2.83428 4.915 3.87197 3.87783C4.91015 2.83941 6.14282 2.01578 7.49951 1.45404C8.85619 0.892294 10.3103 0.603445 11.7787 0.604005C14.744 0.604202 17.5879 1.78174 19.6854 3.87783C20.7225 4.9154 21.545 6.14723 22.1057 7.5029C22.6664 8.85856 22.9544 10.3115 22.9532 11.7785Z" stroke="#2B2B2B" stroke-width="1.20805" stroke-linecap="round" stroke-linejoin="round"/>
</svg>
