<svg width="25" height="26" viewBox="0 0 25 26" fill="none" xmlns="http://www.w3.org/2000/svg">
<path d="M16.529 20.3462C16.529 20.9307 16.4138 21.5094 16.1902 22.0494C15.9665 22.5894 15.6387 23.0801 15.2254 23.4934C14.8121 23.9066 14.3214 24.2345 13.7815 24.4581C13.2415 24.6818 12.6627 24.7969 12.0782 24.7969C11.4938 24.7969 10.915 24.6818 10.375 24.4581C9.83504 24.2345 9.3444 23.9066 8.93111 23.4934C8.51782 23.0801 8.18998 22.5894 7.96631 22.0494C7.74264 21.5094 7.62752 20.9307 7.62752 20.3462M21.2734 20.3462H2.88432C2.43947 20.346 2.00466 20.2139 1.63486 19.9667C1.26506 19.7194 0.976883 19.368 0.806753 18.957C0.636623 18.546 0.592181 18.0937 0.679047 17.6574C0.765913 17.2211 0.980186 16.8204 1.29478 16.5059L2.0603 15.7391C2.77532 15.0236 3.17692 14.0534 3.1768 13.0419V9.53731C3.1768 7.1765 4.11463 4.91238 5.78397 3.24304C7.45332 1.57369 9.71743 0.635864 12.0782 0.635864C14.4391 0.635864 16.7032 1.57369 18.3725 3.24304C20.0419 4.91238 20.9797 7.1765 20.9797 9.53731V13.0419C20.9799 14.0536 21.382 15.0238 22.0975 15.7391L22.8643 16.5059C23.1782 16.8206 23.392 17.2213 23.4785 17.6574C23.565 18.0935 23.5204 18.5454 23.3504 18.9562C23.1804 19.367 22.8925 19.7182 22.5231 19.9656C22.1537 20.213 21.718 20.3454 21.2734 20.3462Z" stroke="#2B2B2B" stroke-width="1.27164" stroke-linecap="round" stroke-linejoin="round"/>
</svg>
