<svg width="34" height="34" viewBox="0 0 34 34" fill="none" xmlns="http://www.w3.org/2000/svg">
<path d="M16.8845 0.804077C8.00321 0.804077 0.803955 8.00333 0.803955 16.8846C0.803955 25.7659 8.00321 32.9651 16.8845 32.9651C25.7658 32.9651 32.965 25.7659 32.965 16.8846C32.965 8.00333 25.7658 0.804077 16.8845 0.804077Z" fill="#5C5C5C" stroke="#5C5C5C" stroke-width="1.60805" stroke-linecap="round" stroke-linejoin="round"/>
<path d="M4.4563 27.0907C4.4563 27.0907 8.04065 22.5142 16.8849 22.5142C25.7292 22.5142 29.3152 27.0907 29.3152 27.0907M16.8849 16.886C18.1644 16.886 19.3914 16.3777 20.2961 15.473C21.2008 14.5683 21.7091 13.3413 21.7091 12.0618C21.7091 10.7824 21.2008 9.55534 20.2961 8.65063C19.3914 7.74593 18.1644 7.23767 16.8849 7.23767C15.6055 7.23767 14.3785 7.74593 13.4737 8.65063C12.569 9.55534 12.0608 10.7824 12.0608 12.0618C12.0608 13.3413 12.569 14.5683 13.4737 15.473C14.3785 16.3777 15.6055 16.886 16.8849 16.886Z" stroke="#CEFF1B" stroke-width="1.60805" stroke-linecap="round" stroke-linejoin="round"/>
</svg>
