<svg width="43" height="43" viewBox="0 0 43 43" fill="none" xmlns="http://www.w3.org/2000/svg">
<g filter="url(#filter0_d_342_1138)">
<rect x="3.42432" width="35.1667" height="35.1667" rx="17.5833" fill="#2B2B2B"/>
</g>
<path d="M21.4253 9C21.7721 9 22.0533 9.28115 22.0533 9.62798V10.4653C22.0533 10.8121 21.7721 11.0933 21.4253 11.0933C21.0785 11.0933 20.7973 10.8121 20.7973 10.4653V9.62798C20.7973 9.28115 21.0785 9 21.4253 9Z" fill="#FEFEFE"/>
<path fill-rule="evenodd" clip-rule="evenodd" d="M16.6108 18.001C16.6108 15.342 18.7663 13.1865 21.4253 13.1865C24.0843 13.1865 26.2398 15.342 26.2398 18.001C26.2398 20.66 24.0843 22.8155 21.4253 22.8155C18.7663 22.8155 16.6108 20.66 16.6108 18.001ZM21.4253 14.4425C19.46 14.4425 17.8668 16.0357 17.8668 18.001C17.8668 19.9663 19.46 21.5595 21.4253 21.5595C23.3906 21.5595 24.9838 19.9663 24.9838 18.001C24.9838 16.0357 23.3906 14.4425 21.4253 14.4425Z" fill="#FEFEFE"/>
<path d="M15.9488 11.6363C15.7035 11.3911 15.3059 11.3911 15.0607 11.6363C14.8154 11.8816 14.8154 12.2792 15.0607 12.5244L15.6527 13.1165C15.898 13.3617 16.2956 13.3617 16.5408 13.1165C16.7861 12.8713 16.7861 12.4736 16.5408 12.2284L15.9488 11.6363Z" fill="#FEFEFE"/>
<path d="M30.4263 18.001C30.4263 18.3478 30.1451 18.629 29.7983 18.629H28.961C28.6142 18.629 28.333 18.3478 28.333 18.001C28.333 17.6542 28.6142 17.373 28.961 17.373H29.7983C30.1451 17.373 30.4263 17.6542 30.4263 18.001Z" fill="#FEFEFE"/>
<path d="M27.79 12.5244C28.0352 12.2792 28.0352 11.8816 27.79 11.6363C27.5447 11.3911 27.1471 11.3911 26.9019 11.6363L26.3098 12.2284C26.0646 12.4736 26.0646 12.8713 26.3098 13.1165C26.555 13.3617 26.9527 13.3617 27.1979 13.1165L27.79 12.5244Z" fill="#FEFEFE"/>
<path d="M21.4253 24.9087C21.7721 24.9087 22.0533 25.1899 22.0533 25.5367V26.374C22.0533 26.7208 21.7721 27.002 21.4253 27.002C21.0785 27.002 20.7973 26.7208 20.7973 26.374V25.5367C20.7973 25.1899 21.0785 24.9087 21.4253 24.9087Z" fill="#FEFEFE"/>
<path d="M27.1979 22.8855C26.9527 22.6403 26.5551 22.6403 26.3099 22.8855C26.0646 23.1307 26.0646 23.5283 26.3099 23.7736L26.9019 24.3656C27.1472 24.6109 27.5448 24.6109 27.79 24.3656C28.0352 24.1204 28.0352 23.7228 27.79 23.4776L27.1979 22.8855Z" fill="#FEFEFE"/>
<path d="M14.5176 18.001C14.5176 18.3478 14.2364 18.629 13.8896 18.629H13.0523C12.7055 18.629 12.4243 18.3478 12.4243 18.001C12.4243 17.6542 12.7055 17.373 13.0523 17.373H13.8896C14.2364 17.373 14.5176 17.6542 14.5176 18.001Z" fill="#FEFEFE"/>
<path d="M16.5408 23.7736C16.786 23.5283 16.786 23.1307 16.5408 22.8855C16.2955 22.6402 15.8979 22.6402 15.6527 22.8855L15.0606 23.4775C14.8154 23.7228 14.8154 24.1204 15.0606 24.3656C15.3058 24.6109 15.7035 24.6109 15.9487 24.3656L16.5408 23.7736Z" fill="#FEFEFE"/>
<defs>
<filter id="filter0_d_342_1138" x="8.7738e-05" y="0" width="42.0152" height="42.0151" filterUnits="userSpaceOnUse" color-interpolation-filters="sRGB">
<feFlood flood-opacity="0" result="BackgroundImageFix"/>
<feColorMatrix in="SourceAlpha" type="matrix" values="0 0 0 0 0 0 0 0 0 0 0 0 0 0 0 0 0 0 127 0" result="hardAlpha"/>
<feOffset dy="3.42423"/>
<feGaussianBlur stdDeviation="1.71211"/>
<feComposite in2="hardAlpha" operator="out"/>
<feColorMatrix type="matrix" values="0 0 0 0 0 0 0 0 0 0 0 0 0 0 0 0 0 0 0.25 0"/>
<feBlend mode="normal" in2="BackgroundImageFix" result="effect1_dropShadow_342_1138"/>
<feBlend mode="normal" in="SourceGraphic" in2="effect1_dropShadow_342_1138" result="shape"/>
</filter>
</defs>
</svg>
