<svg width="50" height="50" viewBox="0 0 50 50" fill="none" xmlns="http://www.w3.org/2000/svg">
<rect x="0.25" y="0.25" width="49.5" height="49.5" rx="7.75" fill="#CEFF1B" stroke="#2B2B2B" stroke-width="0.5"/>
<path d="M20.417 14.4785H29.583C30.2144 14.4785 30.7293 14.9927 30.7295 15.624V18.6035H35.083C35.2103 18.6035 35.3125 18.7057 35.3125 18.833V19.291H33.3848L33.3535 19.9463L32.6465 34.9277C32.6178 35.5405 32.1152 36.0203 31.5029 36.0205H18.4971C17.8877 36.0203 17.3821 35.5378 17.3535 34.9277L16.6465 19.9463L16.6152 19.291H14.6875V18.833C14.6875 18.7057 14.7897 18.6035 14.917 18.6035H19.2705V15.624C19.2707 14.9927 19.7856 14.4785 20.417 14.4785ZM19.958 18.6035H30.042V15.166H19.958V18.6035Z" stroke="#2B2B2B" stroke-width="1.375"/>
<path d="M22.25 23.0156V31.6094" stroke="#2B2B2B" stroke-width="1.375" stroke-linecap="round"/>
<path d="M28.0938 23.0156V31.6094" stroke="#2B2B2B" stroke-width="1.375" stroke-linecap="round"/>
</svg>
