<svg width="10" height="10" viewBox="0 0 10 10" fill="none" xmlns="http://www.w3.org/2000/svg">
<path d="M7.37001 0.537793C7.55428 0.353522 7.8042 0.25 8.0648 0.25C8.3254 0.25 8.57532 0.353522 8.75959 0.537793C8.94386 0.722063 9.04739 0.971988 9.04739 1.23259C9.04739 1.49318 8.94386 1.74311 8.75959 1.92738L4.58481 6.10262C4.47483 6.21252 4.33895 6.29296 4.18971 6.33654L2.85895 6.72562C2.81909 6.73725 2.77684 6.73794 2.73662 6.72764C2.6964 6.71734 2.65969 6.69641 2.63033 6.66705C2.60098 6.6377 2.58005 6.60099 2.56975 6.56077C2.55944 6.52055 2.56014 6.4783 2.57176 6.43844L2.96085 5.10768C3.00463 4.95855 3.08523 4.82284 3.19523 4.71304L7.37001 0.537793Z" stroke="#2B2B2B" stroke-width="0.5" stroke-linecap="round" stroke-linejoin="round"/>
<path d="M4.41876 0.710938H1.17639C0.930697 0.710938 0.695066 0.808539 0.521334 0.982271C0.347602 1.156 0.25 1.39163 0.25 1.63733V8.12207C0.25 8.36776 0.347602 8.60339 0.521334 8.77712C0.695066 8.95086 0.930697 9.04846 1.17639 9.04846H7.66113C7.90682 9.04846 8.14245 8.95086 8.31619 8.77712C8.48992 8.60339 8.58752 8.36776 8.58752 8.12207V4.8797" stroke="#2B2B2B" stroke-width="0.5" stroke-linecap="round" stroke-linejoin="round"/>
</svg>
