<svg width="24" height="24" viewBox="0 0 24 24" fill="none" xmlns="http://www.w3.org/2000/svg">
<path d="M17.2174 17.2174L22.9565 22.9565M20.087 10.5218C20.087 13.0586 19.0792 15.4916 17.2854 17.2854C15.4916 19.0792 13.0586 20.087 10.5218 20.087C7.98491 20.087 5.55196 19.0792 3.75813 17.2854C1.9643 15.4916 0.956543 13.0586 0.956543 10.5218C0.956543 7.98491 1.9643 5.55196 3.75813 3.75813C5.55196 1.9643 7.98491 0.956543 10.5218 0.956543C13.0586 0.956543 15.4916 1.9643 17.2854 3.75813C19.0792 5.55196 20.087 7.98491 20.087 10.5218Z" stroke="black" stroke-width="1.91304" stroke-linecap="round"/>
<path d="M6.08936 10.5221H14.9588M10.5241 6.0874V14.9568" stroke="black" stroke-width="1.47823" stroke-linecap="round"/>
</svg>
