<svg width="19" height="16" viewBox="0 0 19 16" fill="none" xmlns="http://www.w3.org/2000/svg">
<path d="M16.2835 9.14053L10.5698 14.8552C10.191 15.2339 9.6773 15.4467 9.14166 15.4467C8.60602 15.4467 8.0923 15.2339 7.71349 14.8552L1.99982 9.14154C1.5275 8.67334 1.15231 8.11646 0.895793 7.50288C0.639273 6.88929 0.506473 6.23108 0.505017 5.56604C0.503561 4.90099 0.633477 4.2422 0.887307 3.6275C1.14114 3.0128 1.51388 2.45428 1.98414 1.98402C2.4544 1.51376 3.01292 1.14102 3.62762 0.887185C4.24232 0.633355 4.90111 0.503439 5.56616 0.504895C6.2312 0.506351 6.88941 0.639151 7.503 0.895671C8.11658 1.15219 8.67346 1.52738 9.14166 1.99969C10.0927 1.07237 11.3707 0.557049 12.699 0.565372C14.0272 0.573694 15.2987 1.10499 16.238 2.04416C17.1773 2.98333 17.7088 4.25475 17.7173 5.58301C17.7258 6.91127 17.2107 8.1894 16.2835 9.14053Z" stroke="#2B2B2B" stroke-width="1.01002" stroke-linecap="round" stroke-linejoin="round"/>
</svg>
