<svg width="20" height="21" viewBox="0 0 20 21" fill="none" xmlns="http://www.w3.org/2000/svg">
<path d="M14.08 15.3H13.95C13.7967 14.5563 13.5267 13.8723 13.14 13.248C12.7533 12.6238 12.2833 12.0859 11.73 11.6344C11.1767 11.1828 10.5533 10.8309 9.86 10.5785C9.16667 10.3262 8.44 10.2 7.68 10.2C7.09333 10.2 6.52667 10.2764 5.98 10.4291C5.43333 10.5818 4.92333 10.7943 4.45 11.0666C3.97667 11.3389 3.54667 11.6709 3.16 12.0627C2.77333 12.4545 2.44 12.8861 2.16 13.3576C1.88 13.8291 1.66333 14.3371 1.51 14.8816C1.35667 15.4262 1.28 15.9906 1.28 16.575H0C0 15.7781 0.116667 15.0111 0.35 14.274C0.583333 13.5369 0.92 12.8563 1.36 12.232C1.8 11.6078 2.32 11.0533 2.92 10.5686C3.52 10.0838 4.2 9.70195 4.96 9.42305C4.20667 8.93164 3.62 8.31406 3.2 7.57031C2.78 6.82656 2.56667 6.00313 2.56 5.1C2.56 4.39609 2.69333 3.73535 2.96 3.11777C3.22667 2.5002 3.59 1.95898 4.05 1.49414C4.51 1.0293 5.05333 0.664063 5.68 0.398438C6.30667 0.132813 6.97333 0 7.68 0C8.38667 0 9.05 0.132813 9.67 0.398438C10.29 0.664063 10.8333 1.02598 11.3 1.48418C11.7667 1.94238 12.1333 2.48359 12.4 3.10781C12.6667 3.73203 12.8 4.39609 12.8 5.1C12.8 5.53828 12.7467 5.9666 12.64 6.38496C12.5333 6.80332 12.3733 7.19844 12.16 7.57031C11.9467 7.94219 11.6967 8.28418 11.41 8.59629C11.1233 8.9084 10.7867 9.18398 10.4 9.42305C11.1467 9.70859 11.8333 10.1004 12.46 10.5984C13.0867 11.0965 13.6267 11.6809 14.08 12.3516V15.3ZM3.84 5.1C3.84 5.63125 3.94 6.12598 4.14 6.58418C4.34 7.04238 4.61333 7.44746 4.96 7.79941C5.30667 8.15137 5.71333 8.42695 6.18 8.62617C6.64667 8.82539 7.14667 8.925 7.68 8.925C8.20667 8.925 8.70333 8.82539 9.17 8.62617C9.63667 8.42695 10.0433 8.15469 10.39 7.80938C10.7367 7.46406 11.0133 7.05898 11.22 6.59414C11.4267 6.1293 11.5267 5.63125 11.52 5.1C11.52 4.57539 11.42 4.08066 11.22 3.61582C11.02 3.15098 10.7467 2.7459 10.4 2.40059C10.0533 2.05527 9.64333 1.77969 9.17 1.57383C8.69667 1.36797 8.2 1.26836 7.68 1.275C7.14667 1.275 6.65 1.37461 6.19 1.57383C5.73 1.77305 5.32333 2.04531 4.97 2.39063C4.61667 2.73594 4.34 3.14434 4.14 3.61582C3.94 4.08731 3.84 4.58203 3.84 5.1ZM16.64 16.575H19.2V17.85H16.64V20.4H15.36V17.85H12.8V16.575H15.36V14.025H16.64V16.575Z" fill="#2B2B2B"/>
</svg>
