<svg width="86" height="86" viewBox="0 0 86 86" fill="none" xmlns="http://www.w3.org/2000/svg">
<path d="M75.6667 1H10.3333C5.17868 1 1 5.17868 1 10.3333V75.6667C1 80.8213 5.17868 85 10.3333 85H75.6667C80.8213 85 85 80.8213 85 75.6667V10.3333C85 5.17868 80.8213 1 75.6667 1Z" fill="#EAEAEA" stroke="#B2B2B2" stroke-opacity="0.5" stroke-width="2" stroke-linecap="round" stroke-linejoin="round"/>
<path d="M57.0013 38.3346C62.156 38.3346 66.3346 34.156 66.3346 29.0013C66.3346 23.8466 62.156 19.668 57.0013 19.668C51.8466 19.668 47.668 23.8466 47.668 29.0013C47.668 34.156 51.8466 38.3346 57.0013 38.3346Z" fill="#EAEAEA" stroke="#B2B2B2" stroke-opacity="0.5" stroke-width="2" stroke-linecap="round" stroke-linejoin="round"/>
<path d="M1 71L29 43L71 85" fill="#EAEAEA"/>
<path d="M1 71L29 43L71 85" stroke="#B2B2B2" stroke-opacity="0.5" stroke-width="2" stroke-linecap="round" stroke-linejoin="round"/>
</svg>
