<svg width="108" height="72" viewBox="0 0 108 72" fill="none" xmlns="http://www.w3.org/2000/svg">
<path d="M71.6667 24.3333L98.4788 11.0567C99.3764 10.6124 100.374 10.4026 101.376 10.4474C102.378 10.4921 103.353 10.7898 104.206 11.3122C105.06 11.8346 105.765 12.5644 106.254 13.4324C106.743 14.3004 106.999 15.2777 107 16.2717V55.7283C106.999 56.7223 106.743 57.6996 106.254 58.5676C105.765 59.4356 105.06 60.1654 104.206 60.6878C103.353 61.2102 102.378 61.5079 101.376 61.5526C100.374 61.5974 99.3764 61.3876 98.4788 60.9433L71.6667 47.6667V24.3333ZM1 12.6667C1 9.57247 2.24087 6.60501 4.44963 4.41709C6.65839 2.22916 9.65412 1 12.7778 1H59.8889C63.0125 1 66.0083 2.22916 68.217 4.41709C70.4258 6.60501 71.6667 9.57247 71.6667 12.6667V59.3333C71.6667 62.4275 70.4258 65.395 68.217 67.5829C66.0083 69.7708 63.0125 71 59.8889 71H12.7778C9.65412 71 6.65839 69.7708 4.44963 67.5829C2.24087 65.395 1 62.4275 1 59.3333V12.6667Z" stroke="#B2B2B2" stroke-opacity="0.5" stroke-width="2" stroke-linecap="round" stroke-linejoin="round"/>
</svg>
